<?xml version="1.0" standalone="no"?>
<!DOCTYPE svg PUBLIC "-//W3C//DTD SVG 20010904//EN"
 "http://www.w3.org/TR/2001/REC-SVG-20010904/DTD/svg10.dtd">
<svg version="1.0" xmlns="http://www.w3.org/2000/svg"
 width="250.000000pt" height="250.000000pt" viewBox="0 0 250.000000 250.000000"
 preserveAspectRatio="xMidYMid meet">
<metadata>
Created by potrace 1.11, written by Peter Selinger 2001-2013
</metadata>
<g transform="translate(0.000000,250.000000) scale(0.100000,-0.100000)"
fill="#000000" stroke="none">
<path d="M1050 2493 c-76 -13 -195 -49 -270 -80 -73 -31 -244 -125 -260 -142
-3 -3 -31 -26 -63 -50 -171 -130 -334 -374 -406 -606 -46 -152 -54 -216 -48
-408 4 -151 8 -185 34 -277 129 -455 479 -795 933 -905 92 -22 127 -25 277
-25 228 0 342 24 531 111 363 168 617 489 707 892 14 64 16 112 12 285 -4 198
-6 212 -36 307 -128 407 -412 705 -803 843 -144 51 -218 62 -410 61 -95 -1
-184 -4 -198 -6z m160 -198 c0 -2 -34 -63 -75 -135 -41 -71 -108 -188 -149
-259 -41 -71 -84 -147 -96 -168 -11 -21 -29 -51 -39 -68 -17 -29 -103 -177
-181 -315 -84 -147 -140 -246 -239 -419 l-105 -183 -18 36 c-34 66 -86 239
-99 325 -56 391 131 798 467 1017 119 78 286 145 414 167 36 6 120 8 120 2z
m300 -25 c300 -77 568 -298 694 -574 15 -32 23 -62 20 -68 -4 -7 -2 -8 4 -4 7
4 12 5 12 2 0 -3 11 -44 24 -90 52 -180 54 -372 5 -554 -25 -90 -77 -222 -89
-222 -4 0 -56 84 -115 188 -59 103 -122 212 -140 242 -18 30 -44 75 -57 100
-14 25 -60 106 -103 180 -43 74 -95 164 -115 200 -70 125 -173 305 -197 345
-37 61 -84 143 -127 219 l-39 69 69 -6 c39 -3 108 -15 154 -27z m-35 -710 c23
-41 56 -99 74 -128 17 -29 31 -54 31 -56 0 -2 19 -35 42 -72 23 -38 58 -98 78
-134 29 -51 93 -163 157 -272 2 -5 -270 -8 -606 -8 l-610 0 49 81 c28 44 50
83 50 86 0 3 22 42 48 87 27 44 60 101 74 126 13 25 60 106 103 180 43 74 89
155 103 180 13 25 37 65 52 90 15 25 51 87 80 138 l52 93 91 -158 c49 -87 109
-192 132 -233z m656 -889 c-20 -36 -134 -167 -184 -210 -131 -111 -260 -181
-425 -228 -88 -25 -112 -27 -267 -28 -157 0 -178 2 -270 28 -55 16 -137 46
-182 67 -88 41 -245 153 -304 216 -54 58 -129 153 -129 164 0 6 326 10 885 10
861 0 885 -1 876 -19z"/>
</g>
</svg>
